#!OML:ASF \\sashay\E\basketball\basketball\Project 1\Capture day 1\Session 1\Subject.ASF
:FULLY-SPECIFIED
:DEGREES
493
root -13.5364 13.6196 9.59378 -366.423 73.1289 -388.192
lowerback 27.668 -3.29866 -6.08955
upperback 12.9757 -4.57173 0.97002
thorax -0.061192 -2.2394 5.72358
lowerneck -6.91858 4.41117 -8.46994
upperneck -26.1384 10.7622 14.4354
head -8.11867 5.5866 5.76326
rclavicle 2.8625e-014 -3.33958e-014
rhumerus -19.5414 -40.8507 -64.8984
rradius 71.9244
rwrist -64.2063
rhand 4.61904 378.177
rfingers 7.12502
rthumb 30.0065 -9.40874
lclavicle 2.8625e-014 -3.33958e-014
lhumerus -35.6419 -6.35372 96.9845
lradius 26.1876
lwrist 12.8912
lhand -13.8676 31.6514
lfingers 7.12502
lthumb 12.2567 61.2723
rfemur -19.6492 -6.90435 17.7375
rtibia 92.3576
rfoot -0.0593937 -4.86388
rtoes -28.6836
lfemur -50.636 10.4593 -40.2624
ltibia 74.4496
lfoot -26.9564 -0.964574
ltoes -4.40954
494
root -13.1825 13.6026 9.72256 -363.255 73.468 -384.329
lowerback 28.1866 -3.3289 -7.31853
upperback 12.979 -4.92484 0.566972
thorax -0.14157 -2.44253 6.09596
lowerneck -6.94221 4.50991 -7.79299
upperneck -26.2935 10.7722 13.8386
head -8.10918 5.56464 5.43298
rclavicle 2.38542e-014 7.95139e-015
rhumerus -19.7853 -41.5267 -64.6806
rradius 72.5403
rwrist -65.0676
rhand 5.47065 377.793
rfingers 7.12502
rthumb 30.8188 -9.64236
lclavicle 2.38542e-014 7.95139e-015
lhumerus -33.1479 -5.72104 95.2888
lradius 26.0661
lwrist 10.6288
lhand -14.1802 31.9817
lfingers 7.12502
lthumb 11.9554 61.6203
rfemur -23.1117 -6.13677 16.0252
rtibia 97.0694
rfoot -1.37754 -5.52081
rtoes -21.1983
lfemur -48.2338 10.5261 -40.6186
ltibia 74.5317
lfoot -26.8366 -1.7635
ltoes -0.592586
495
root -12.826 13.5811 9.84568 -360.61 73.6193 -381.032
lowerback 28.565 -3.33398 -8.03443
upperback 13.0304 -5.12594 0.0485976
thorax -0.192373 -2.54086 6.00027
lowerneck -7.16325 4.41607 -7.21184
upperneck -26.0401 10.5549 13.6968
head -7.9189 5.42533 5.29875
rclavicle 5.24792e-014 -2.06736e-014
rhumerus -20.2457 -42.3107 -64.3021
rradius 73.0524
rwrist -65.8892
rhand 6.22143 377.246
rfingers 7.12502
rthumb 31.5343 -10.0525
lclavicle 5.24792e-014 -2.06736e-014
lhumerus -30.486 -4.9075 93.3071
lradius 26.302
lwrist 8.27035
lhand -14.4578 32.4367
lfingers 7.12502
lthumb 11.6876 62.0907
rfemur -26.8514 -5.26857 14.6154
rtibia 101.265
rfoot -2.07259 -6.10672
rtoes -21.7971
lfemur -45.6901 10.902 -40.8364
ltibia 74.3807
lfoot -26.9544 -2.6508
ltoes -0.660821
496
root -12.4661 13.557 9.9598 -359.369 73.7185 -379.42
lowerback 28.7472 -3.48829 -8.6118
upperback 12.8687 -5.49514 0.0180072
thorax -0.328778 -2.73976 6.40368
lowerneck -6.4328 4.69061 -8.36981
upperneck -26.1316 10.8849 13.6381
head -8.17683 5.64661 5.43281
rclavicle 3.49861e-014 -2.38542e-014
rhumerus -20.3203 -42.0215 -63.4252
rradius 73.1733
rwrist -66.5875
rhand 8.6226 376.293
rfingers 7.12502
rthumb 33.8188 -10.5305
lclavicle 3.49861e-014 -2.38542e-014
lhumerus -28.0413 -2.29487 91.9248
lradius 26.9212
lwrist 5.47978
lhand -15.3094 32.7007
lfingers 7.12502
lthumb 10.8663 62.3996
rfemur -31.0551 -4.31652 13.8538
rtibia 104.914
rfoot -2.81437 -6.77969
rtoes -23.7517
lfemur -43.2638 11.4132 -40.6447
ltibia 74.0832
lfoot -27.4888 -3.27097
ltoes -2.47053
497
root -12.0871 13.5409 10.0634 -359.364 73.7503 -379.319
lowerback 28.4826 -3.74287 -8.04377
upperback 12.8039 -5.68823 -0.347935
thorax -0.375042 -2.79179 5.71322
lowerneck -6.0328 4.55262 -7.35849
upperneck -26.1546 10.555 13.2823
head -8.14331 5.38716 5.13999
rclavicle 7.63333e-014 4.77083e-015
rhumerus -20.7226 -42.4182 -62.9283
rradius 73.3379
rwrist -66.8442
rhand 11.1607 375.837
rfingers 7.12502
rthumb 36.2263 -10.4235
lclavicle 7.63333e-014 4.77083e-015
lhumerus -25.9256 -1.19617 90.4423
lradius 28.5029
lwrist 3.95343
lhand -16.9703 32.7837
lfingers 7.12502
lthumb 9.26402 62.5602
rfemur -35.3472 -3.12283 13.5414
rtibia 107.824
rfoot -3.94349 -7.38893
rtoes -21.4025
lfemur -41.0068 12.1163 -40.072
ltibia 73.5924
lfoot -28.399 -3.65695
ltoes -6.54191
498
root -11.7001 13.5212 10.1644 -360.277 73.646 -380.349
lowerback 28.08 -3.97575 -7.43694
upperback 12.657 -5.84793 -0.438967
thorax -0.430504 -2.8437 5.29155
lowerneck -6.31235 4.61605 -6.99365
upperneck -25.6126 10.4328 12.7887
head -7.8511 5.33734 4.9122
rclavicle 8.90555e-014 -1.59028e-015
rhumerus -20.6342 -42.3207 -62.4813
rradius 73.4594
rwrist -67.0981
rhand 12.2874 375.578
rfingers 7.12502
rthumb 37.2925 -10.4099
lclavicle 8.90555e-014 -1.59028e-015
lhumerus -24.2995 -0.456907 89.5171
lradius 31.0859
lwrist 4.00879
lhand -19.5236 33.2802
lfingers 7.12502
lthumb 6.79968 63.151
rfemur -39.8314 -1.69608 13.7028
rtibia 110.024
rfoot -4.07609 -8.60044
rtoes -19.6447
lfemur -39.0056 13.075 -39.2224
ltibia 73.0251
lfoot -27.9467 -5.55603
ltoes -0.67938
